<?xml version="1.0" ?><!DOCTYPE svg  PUBLIC '-//W3C//DTD SVG 1.1//EN'  'http://www.w3.org/Graphics/SVG/1.1/DTD/svg11.dtd'><svg enable-background="new 0 0 512 512" height="512px" id="Layer_1" version="1.1" viewBox="0 0 512 512" width="512px" xml:space="preserve" xmlns="http://www.w3.org/2000/svg" xmlns:xlink="http://www.w3.org/1999/xlink"><g id="Google_Plus"><g><path d="M259.766,187.398c0-29.68-17.736-75.83-51.93-75.83c-10.754,0-22.27,5.354-28.884,13.606    c-7.016,8.664-9.056,19.758-9.056,30.504c0,27.596,16.068,73.336,51.538,73.336c10.302,0,21.398-4.918,28.03-11.518    C258.946,207.982,259.766,194.824,259.766,187.398z"/><path d="M237.496,295.784c-3.282-0.412-5.344-0.412-9.466-0.412c-3.716,0-25.986,0.81-43.292,6.618    c-9.074,3.278-35.448,13.174-35.448,42.43c0,29.264,28.444,50.312,72.552,50.312c39.588,0,60.62-19.004,60.62-44.522    C282.462,329.136,268.852,318.042,237.496,295.784z"/><path d="M257,40C137.708,40,41,136.706,41,256s96.706,216,216,216s216-96.706,216-216C473,136.708,376.294,40,257,40z     M201.626,412C141.836,412,113,383.576,113,353.062c0-14.826,7.404-35.83,31.732-50.262    c25.544-15.662,60.198-17.712,78.762-18.986c-5.796-7.414-12.372-15.242-12.372-28.006c0-6.998,2.062-11.12,4.102-16.072    c-4.542,0.42-9.056,0.826-13.18,0.826c-43.686,0-68.426-32.58-68.426-64.72c0-18.932,8.646-39.964,26.37-55.218    C183.504,101.26,215.626,96,237.914,96h81.23l-26.814,16.804h-25.546c9.474,7.82,29.242,24.306,29.242,55.642    c0,30.474-17.292,44.934-34.598,58.522c-5.37,5.346-11.558,11.12-11.558,20.202c0,9.044,6.188,13.984,10.712,17.726l14.856,11.508    c18.146,15.246,34.63,29.258,34.628,57.722C310.066,372.866,272.53,412,201.626,412z M371.55,248.962v41.456h-20.402v-41.456    h-41.24v-20.578h41.24V187.18h20.402v41.204H413v20.578H371.55L371.55,248.962z"/><path d="M257,0C115.614,0,1,114.614,1,256s114.614,256,256,256s256-114.614,256-256S398.386,0,257,0z M257,484.002    c-125.92,0-228-102.08-228-228.002S131.08,28,257,28s228,102.08,228,228S382.92,484.002,257,484.002z"/></g></g></svg>